# xmcd CD database file
#
# Track frame offsets:
#	150
#	14708
#	36833
#	76052
#	96126
#	105590
#	133642
#	146541
#
# Disc length: 2156 seconds
#
# Revision: 0
# Processed by: cddbd v1.5PL3 Copyright (c) Steve Scherf et al.
# Submitted via: CDex 1.50
#
DISCID=61086a08
DTITLE=Joe Pass - Joe Pass at the Guitar Workshop [CD2 of 2)
DYEAR=1900
DGENRE=Jazz
TTITLE0=Unlocking the Chord Forms
TTITLE1=Cherokee
TTITLE2=Bass Parts and Moving Lines
TTITLE3=I'm Confessin' (duet)
TTITLE4=I'm Confessin' (Analysis)
TTITLE5=Guitarists or Musicians?
TTITLE6=General Comments
TTITLE7=How High the Moon
EXTD=
EXTT0=
EXTT1=
EXTT2=
EXTT3=
EXTT4=
EXTT5=
EXTT6=
EXTT7=
PLAYORDER=
